<?xml version="1.0" encoding="utf-8"?>
<!-- Generator: Adobe Illustrator 26.1.0, SVG Export Plug-In . SVG Version: 6.00 Build 0)  -->
<svg version="1.1" id="Grupo_2" xmlns="http://www.w3.org/2000/svg" xmlns:xlink="http://www.w3.org/1999/xlink" x="0px" y="0px"
	 viewBox="0 0 236 90.6" style="enable-background:new 0 0 236 90.6;" xml:space="preserve">
<style type="text/css">
	.st0{clip-path:url(#SVGID_00000131352288111687984600000002591983771173780156_);}
	.st1{fill:#0085CE;}
</style>
<g>
	<defs>
		<rect id="SVGID_1_" x="-22" y="-8.4" width="280" height="107.5"/>
	</defs>
	<clipPath id="SVGID_00000157272256023069606740000007491080151567592834_">
		<use xlink:href="#SVGID_1_"  style="overflow:visible;"/>
	</clipPath>
	<g id="Grupo_1" style="clip-path:url(#SVGID_00000157272256023069606740000007491080151567592834_);">
		<path id="Trazado_1" class="st1" d="M17,22.5c-3.7,0.1-10.6,1.9-13.7,14.7c-1.5,6-1.8,12.2-0.7,18.3c0.9,5.1,2.3,10.1,4.3,14.9
			c0.4,1,1,1.9,1.7,2.8c1.2,1.5,3.3,2,5.1,1.3c1.2-0.6,2.5-2,2-5.1c-0.3-1.7-0.8-3.4-1.3-5c-1.2-3.8-2.7-8.4-2.9-11.7
			c-0.2-4.4,1.5-5,2.7-5.2c1.9-0.4,3.6,1.7,5.1,4.4c1.8,3.2,5,8.8,7.5,13.1c2.3,3.9,6.6,8,13.5,7.7c7-0.3,12.2-3,14.8-11.4
			c2-6.3,3.3-11,5.5-15.8c2.5-5.5,5.9-8.5,8.7-7.6c2.6,0.8,3.3,3.4,3.3,7.2c0,3.2-0.3,6.5-0.7,9.7c-0.2,1.3-0.2,2.7-0.2,4
			c0.2,2.1,1.1,4.3,3.5,4.6c2.6,0.4,4.6-1.7,5.5-4.2c0.3-1.2,0.6-2.3,0.8-3.5c0.8-4.8,1-9.6,0.6-14.5c-0.3-6-1.6-11.8-3.9-17.4
			c-2.1-4.9-5.5-8-9.8-8.2c-4.8-0.3-10.3,2.9-13.2,9c-2.7,5.7-4.8,11.5-6.1,14.5c-1.3,3-3.2,4.9-6.2,5.2c-3.6,0.4-6.7-2.2-9-6
			c-2-3.3-5.9-9.5-8-11.6C24,24.9,21.7,22.4,17,22.5"/>
		<path id="Trazado_2" class="st1" d="M96.6,33.1h13.8l-0.3,2.5H99.7v8.1h8.4v2.5h-8.4v8.4h10.8v2.5h-14V33.1z"/>
		<path id="Trazado_3" class="st1" d="M114.4,39.9h2.4l0.1,1.3c1.6-1.1,3.6-1.7,5.5-1.8c2.2,0,3.7,0.6,4.7,1.9
			c1.8-1.2,4-1.9,6.2-1.9c1.6-0.1,3.1,0.4,4.3,1.5c0.9,0.9,1.4,2.4,1.4,4.5v11.7h-2.9V45.8c0.1-1-0.2-2.1-0.8-2.9
			c-0.7-0.6-1.7-1-2.7-0.9c-1.6,0-3.2,0.4-4.6,1.2c0.2,0.7,0.2,1.5,0.2,2.3v11.7h-2.9V45.8c0.1-1-0.2-2.1-0.8-2.9
			c-0.7-0.6-1.7-1-2.7-0.9c-1.6,0-3.1,0.4-4.5,1.1v14h-2.9L114.4,39.9z"/>
		<path id="Trazado_4" class="st1" d="M143.7,39.9h2.4l0.1,1.3c1.6-1.1,3.5-1.7,5.4-1.8c4.5,0,6.6,3.5,6.6,9c0,6.5-2.6,9.2-6.7,9.2
			c-1.7,0-3.4-0.4-4.9-1.3V65h-2.9V39.9z M155.1,48.4c0-4.4-1.3-6.5-4.2-6.5c-1.5,0.1-3,0.4-4.4,1.2v11.1c1.3,0.7,2.7,1,4.2,1.1
			C153.9,55.2,155.1,53.3,155.1,48.4"/>
		<path id="Trazado_5" class="st1" d="M161.9,39.9h2.4l0.2,1.5c1.3-1.2,3.1-1.9,4.9-2c0.4,0,0.8,0,1.1,0.1v2.6c-0.4,0-1-0.1-1.5-0.1
			c-1.5,0-2.9,0.4-4.2,1.2v13.9h-2.9L161.9,39.9z"/>
		<path id="Trazado_6" class="st1" d="M173.8,55.6c-1.5-1.5-2.2-3.9-2.2-7c0-6.1,3.1-9.1,7.4-9.1c4.8,0,7.1,3.4,7.1,9.1v0.7
			c0,0.3-0.1,0.4-0.4,0.4h-11.1c-0.1,1.6,0.4,3.2,1.5,4.4c0.9,0.8,2.2,1.3,4.4,1.3c1.4,0,2.8-0.2,4.2-0.5l0.3,2.2
			c-1.7,0.4-3.4,0.7-5.1,0.7C177.3,57.6,175.2,57,173.8,55.6 M183.3,47.4c-0.1-3.3-1.4-5.6-4.2-5.6c-2.9,0-4.4,2.1-4.4,5.6H183.3z"
			/>
		<path id="Trazado_7" class="st1" d="M189.4,56.9l0.1-2.2c1.6,0.4,3.2,0.6,4.8,0.6c2.8,0,4.3-0.9,4.3-2.7c0-3.9-9.6-1.9-9.6-8.2
			c0-3.3,2.6-5,6.2-5c1.7,0,3.4,0.3,5,0.7l-0.2,2.1c-1.5-0.4-3-0.5-4.5-0.6c-2.5,0-3.8,0.8-3.8,2.4c0,3.9,9.6,2,9.6,8.2
			c0,3.7-2.8,5.3-7,5.3C192.7,57.6,191,57.4,189.4,56.9"/>
		<path id="Trazado_8" class="st1" d="M205.6,56c-0.9-1-1.4-2.3-1.4-3.7c-0.1-1.4,0.5-2.7,1.5-3.7c1.3-1.2,3.3-1.6,5.8-1.6h3.6v-1.1
			c0.1-1.1-0.2-2.1-0.9-2.9c-1-0.8-2.3-1.2-3.6-1c-1.6,0-3.1,0.2-4.6,0.4l-0.1-2.2c1.7-0.4,3.5-0.6,5.2-0.6c2.6,0,4.3,0.6,5.4,1.6
			c1.1,1.1,1.5,2.4,1.5,4.7v11.4h-2.4l-0.2-1.2c-1.6,1.1-3.5,1.6-5.4,1.6C208.4,57.7,206.8,57.1,205.6,56 M215.1,54.1V49H212
			c-1.3-0.1-2.7,0.2-3.8,0.9c-0.7,0.6-1,1.4-0.9,2.3c0,2.1,1.3,3.1,3.5,3.1C212.3,55.2,213.8,54.8,215.1,54.1"/>
		<path id="Trazado_9" class="st1" d="M222,56.9l0.1-2.2c1.6,0.4,3.2,0.6,4.8,0.6c2.8,0,4.3-0.9,4.3-2.7c0-3.9-9.6-1.9-9.6-8.2
			c0-3.3,2.6-5,6.2-5c1.7,0,3.4,0.3,5,0.7l-0.2,2.1c-1.5-0.4-3-0.5-4.5-0.6c-2.5,0-3.8,0.8-3.8,2.4c0,3.9,9.6,2,9.6,8.2
			c0,3.7-2.8,5.3-7,5.3C225.3,57.6,223.6,57.4,222,56.9"/>
	</g>
</g>
</svg>
