<svg xmlns="http://www.w3.org/2000/svg" viewBox="0 0 41.43 34.42"><defs><style>.cls-1{fill:#afb6c9;}</style></defs><g id="Capa_2" data-name="Capa 2"><g id="Facebook"><g id="Artwork"><path class="cls-1" d="M9.11,28.89A3.62,3.62,0,0,1,6.5,28a3.58,3.58,0,0,1-1-2.69,3.54,3.54,0,0,1,1-2.68,3.62,3.62,0,0,1,2.61-.89,3.62,3.62,0,0,1,2.61.89,3.56,3.56,0,0,1,1,2.68,3.58,3.58,0,0,1-1,2.69A3.62,3.62,0,0,1,9.11,28.89Zm0-6.09a2.65,2.65,0,0,0-1.88.59,2.6,2.6,0,0,0-.63,1.92,2.61,2.61,0,0,0,.63,1.93,2.65,2.65,0,0,0,1.88.59A2.65,2.65,0,0,0,11,27.24a2.57,2.57,0,0,0,.64-1.93A2.54,2.54,0,0,0,11,23.39,2.65,2.65,0,0,0,9.11,22.8Z"/><path class="cls-1" d="M9.81,34.42H8.41a.92.92,0,0,1-.92-.92V31.8a7.22,7.22,0,0,1-1.94-.6L4.29,32.46a.93.93,0,0,1-1.31,0l-1-1a.93.93,0,0,1,0-1.31l1.26-1.26a6.65,6.65,0,0,1-.6-1.94H.92A.92.92,0,0,1,0,26V24.62a.92.92,0,0,1,.92-.92h1.7a6.88,6.88,0,0,1,.6-1.94L2,20.5a.91.91,0,0,1,0-1.31l1-1a.94.94,0,0,1,1.32,0l1.26,1.26a6.78,6.78,0,0,1,1.94-.6V17.12a.92.92,0,0,1,.92-.92H9.81a.92.92,0,0,1,.92.92v1.71a6.37,6.37,0,0,1,1.94.6l1.26-1.26a.94.94,0,0,1,1.32,0l1,1a.92.92,0,0,1,0,1.31L15,21.76a6.65,6.65,0,0,1,.6,1.95h1.71a.92.92,0,0,1,.92.91V26a.92.92,0,0,1-.92.91H15.6a6.54,6.54,0,0,1-.6,1.95l1.26,1.26a.92.92,0,0,1,0,1.31l-1,1a.93.93,0,0,1-1.31,0l-1.26-1.26a7.31,7.31,0,0,1-1.94.6v1.7A.92.92,0,0,1,9.81,34.42ZM6,30.23a5.61,5.61,0,0,0,1.72.53,1,1,0,0,1,.84.93v1.67H9.67V31.69a1,1,0,0,1,.83-.93,5.81,5.81,0,0,0,1.74-.53.94.94,0,0,1,1.11.16l1.24,1.23.83-.84-1.23-1.23A1,1,0,0,1,14,28.42a5.8,5.8,0,0,0,.53-1.72,1,1,0,0,1,.92-.84h1.68V24.75H15.49a.94.94,0,0,1-.92-.83A6,6,0,0,0,14,22.19a1,1,0,0,1,.15-1.12l1.24-1.24L14.59,19l-1.23,1.23a1,1,0,0,1-1.12.16,5.49,5.49,0,0,0-1.73-.53,1,1,0,0,1-.84-.93V17.26H8.56v1.67a1,1,0,0,1-.84.93A5.69,5.69,0,0,0,6,20.39a1,1,0,0,1-1.12-.15L3.64,19l-.84.84L4,21.07a1,1,0,0,1,.14,1.16,5.68,5.68,0,0,0-.51,1.69,1,1,0,0,1-.92.83H1.06v1.11H2.73a1,1,0,0,1,.93.83,5.4,5.4,0,0,0,.51,1.69A1,1,0,0,1,4,29.54L2.8,30.78l.84.83,1.23-1.23A1,1,0,0,1,6,30.23Zm1.56,1.58Zm7.12-.1ZM3.26,28.94l0,0Zm12.36-2.08Z"/></g><path class="cls-1" d="M23.3,18.76a2.53,2.53,0,0,1-1.79-.6,2.48,2.48,0,0,1-.64-1.83,2.45,2.45,0,0,1,.64-1.83,2.5,2.5,0,0,1,1.79-.6,2.46,2.46,0,0,1,1.78.6,2.41,2.41,0,0,1,.64,1.83,2.43,2.43,0,0,1-.64,1.83A2.46,2.46,0,0,1,23.3,18.76Zm0-4.19A1.82,1.82,0,0,0,22,15a1.79,1.79,0,0,0-.45,1.34,1.77,1.77,0,1,0,3.52,0A1.79,1.79,0,0,0,24.61,15a1.86,1.86,0,0,0-1.31-.42Z"/><path class="cls-1" d="M22.78,23.7a1.34,1.34,0,0,1-1.33-1.34v-.72l-.1,0-.44-.13-.08,0-.62.61a1.3,1.3,0,0,1-.95.38,1.35,1.35,0,0,1-1-.38l-.75-.75a1.35,1.35,0,0,1,0-1.9l.61-.61,0-.08c-.05-.14-.09-.29-.13-.44l0-.1h-.72a1.35,1.35,0,0,1-1.33-1.34v-1a1.34,1.34,0,0,1,1.33-1.34H18l0-.1c0-.14.08-.29.13-.45l0-.08-.6-.6a1.36,1.36,0,0,1,0-1.91l.75-.74a1.31,1.31,0,0,1,.95-.38,1.35,1.35,0,0,1,.95.37l.61.62.08,0,.44-.14.11,0v-.72A1.32,1.32,0,0,1,22.79,9h1a1.33,1.33,0,0,1,1.33,1.33V11l.1,0,.44.14.08,0,.61-.61a1.34,1.34,0,0,1,1-.38,1.36,1.36,0,0,1,.95.37l.75.76a1.35,1.35,0,0,1,0,1.9l-.62.61,0,.08a3.22,3.22,0,0,1,.14.44l0,.1h.72a1.33,1.33,0,0,1,1.33,1.34v1a1.33,1.33,0,0,1-1.33,1.34h-.72l0,.1c0,.15-.09.3-.14.44l0,.08.62.62a1.35,1.35,0,0,1,0,1.9l-.76.75a1.4,1.4,0,0,1-1.9,0l-.61-.62-.08,0-.44.14-.1,0v.72a1.35,1.35,0,0,1-1.34,1.33Zm-.49-1.34a.49.49,0,0,0,.49.5h1a.5.5,0,0,0,.5-.49V21l.34-.07a4.94,4.94,0,0,0,1.05-.32l.26-.12,1,1a.49.49,0,0,0,.36.15.48.48,0,0,0,.36-.15l.76-.75a.52.52,0,0,0,0-.72l-1-1,.12-.26a4.77,4.77,0,0,0,.32-1.05l.07-.34h1.4a.5.5,0,0,0,.5-.5v-1a.5.5,0,0,0-.5-.5h-1.4L27.88,15a5.38,5.38,0,0,0-.33-1.05l-.12-.26,1-1a.53.53,0,0,0,0-.73l-.75-.74a.47.47,0,0,0-.35-.15.51.51,0,0,0-.37.15l-1,1-.26-.12a4.94,4.94,0,0,0-1.05-.32l-.33-.07v-1.4a.5.5,0,0,0-.5-.5h-1a.5.5,0,0,0-.5.5v1.4l-.34.07a4.77,4.77,0,0,0-1.05.32l-.26.12-1-1a.49.49,0,0,0-.36-.15.48.48,0,0,0-.36.15l-.75.75a.51.51,0,0,0,0,.72l1,1-.12.26A4.21,4.21,0,0,0,18.73,15l-.07.34h-1.4a.5.5,0,0,0-.5.5v1a.51.51,0,0,0,.51.5h1.39l.07.34a4.4,4.4,0,0,0,.32,1l.12.27-1,1a.51.51,0,0,0,0,.72l.74.75a.49.49,0,0,0,.36.15h0a.51.51,0,0,0,.36-.15l1-1,.27.12A5.38,5.38,0,0,0,22,20.9l.34.06Z"/><g id="Artwork-2" data-name="Artwork"><path class="cls-1" d="M31.91,6.78h-.47v0A11.47,11.47,0,0,0,21,0c-6.23,0-10.77,4.8-10.8,11.41a.93.93,0,0,1-.26.1,7.48,7.48,0,0,0-3.81,2.55,7.18,7.18,0,0,0-1.55,3.39,12.36,12.36,0,0,0,1.27.74,5.73,5.73,0,0,1,1.36-3.45,6.52,6.52,0,0,1,3.22-2.12c.25-.06,1-.28,1-1a10.33,10.33,0,0,1,2.69-7.2A9.35,9.35,0,0,1,21,1.58a10.25,10.25,0,0,1,9.32,5.93,0,0,0,0,0,0,0,.83.83,0,0,0,.83.59h.57A8.26,8.26,0,0,1,40,16.27a8.26,8.26,0,0,1-8.32,8.16H18.81v1.4H31.9a9.53,9.53,0,0,0,0-19Z"/></g></g></g></svg>