<svg xmlns="http://www.w3.org/2000/svg" viewBox="0 0 26.16 37.72"><defs><style>.cls-1,.cls-2{fill:#afb6c9;}.cls-1{fill-rule:evenodd;}</style></defs><g id="Capa_2" data-name="Capa 2"><g id="Facebook"><path class="cls-1" d="M20.69,11.31H17.45a.68.68,0,0,0-.49.2.69.69,0,0,0-.21.5.7.7,0,0,0,.7.68h1.8l-4.66,6.46-6.32-2.7a.69.69,0,0,0-.89.28L3.72,23.06a.66.66,0,0,0-.07.53A.69.69,0,0,0,4,24a.62.62,0,0,0,.33.08.72.72,0,0,0,.61-.34L8.29,18l6.27,2.69a.72.72,0,0,0,.84-.23L20,14v1.17a.69.69,0,0,0,.22.48.66.66,0,0,0,.46.19.69.69,0,0,0,.72-.69V12A.69.69,0,0,0,20.69,11.31Z"/><path class="cls-2" d="M21.55,37.72H4.61A4.62,4.62,0,0,1,0,33.11V4.61A4.62,4.62,0,0,1,4.61,0H21.55a4.62,4.62,0,0,1,4.61,4.61v28.5A4.62,4.62,0,0,1,21.55,37.72ZM4.61,1.65a3,3,0,0,0-3,3v28.5a3,3,0,0,0,3,3H21.55a3,3,0,0,0,3-3V4.61a3,3,0,0,0-3-3Z"/><circle class="cls-2" cx="13.08" cy="32.23" r="1.61"/></g></g></svg>