<svg xmlns="http://www.w3.org/2000/svg" viewBox="0 0 70.64 80.73"><defs><style>.cls-1,.cls-2{fill:#00b5f0;}.cls-2{fill-rule:evenodd;}</style></defs><g id="Capa_2" data-name="Capa 2"><g id="Facebook"><path class="cls-1" d="M50.43,31.94a7.1,7.1,0,0,0-3.49-1.68v-6.9c0-5.79-5.1-10.5-11.37-10.5h-.48c-6.27,0-11.38,4.7-11.38,10.5v6.89a7,7,0,0,0-3.54,1.69,7.53,7.53,0,0,0-2.12,5.78h0s0,.31,0,1.07V52.86a7.53,7.53,0,0,0,2.12,5.78A8.22,8.22,0,0,0,26,60.53H44.62a8.3,8.3,0,0,0,5.8-1.89,7.62,7.62,0,0,0,2.17-5.77h0V37.72h0A7.58,7.58,0,0,0,50.43,31.94ZM26.66,23.18c0-4.27,3.79-7.73,8.47-7.73h.4c4.67,0,8.47,3.47,8.47,7.73v7.06l-.8,0H27.41l-.75,0V23.18ZM49.43,52c0,3.72-2,5.54-5.81,5.54H27a6.11,6.11,0,0,1-4.29-1.34A5.51,5.51,0,0,1,21.23,52V39.51h0c0-.65,0-.93,0-1a5.46,5.46,0,0,1,1.46-4.18A6.13,6.13,0,0,1,27,33H43.61c3.86,0,5.76,1.81,5.81,5.54V52Z"/><path class="cls-1" d="M35.34,41.84c-3.44,0-5.42,2-5.42,5.42s2,5.41,5.42,5.41,5.42-2,5.41-5.41S38.79,41.84,35.34,41.84Zm0,8a2.24,2.24,0,0,1-2.57-2.57c0-1.76.81-2.58,2.57-2.58a2.25,2.25,0,0,1,2.57,2.58A2.24,2.24,0,0,1,35.34,49.83Z"/><path class="cls-2" d="M70.64,12.31A1.78,1.78,0,0,0,70,11.06a1.91,1.91,0,0,0-1.4-.37C61.4,11.82,57.52,9.21,53,6.21S43.74,0,35.32,0h0C26.88,0,22,3.3,17.61,6.21c-4.5,3-8.39,5.61-15.54,4.48a1.64,1.64,0,0,0-.38,0A1.68,1.68,0,0,0,0,12.31c0,1.13-.08,27.62,1.91,39C4.43,66,33.37,80,34.61,80.57a1.63,1.63,0,0,0,1.43,0C37.26,80,66.24,66,68.76,51.35,70.7,39.93,70.64,13.44,70.64,12.31ZM65.48,50.77c-2,11.82-25.73,24.18-30.16,26.4C30.88,74.94,7.22,62.59,5.19,50.76,3.57,41.38,3.36,20.62,3.34,14.23c7.29.59,11.79-2.34,16.1-5.2S27.9,3.38,35.31,3.38h0C42.74,3.38,47,6.25,51.18,9s8.69,5.82,16.12,5.18C67.29,20.56,67.09,41.37,65.48,50.77Z"/></g></g></svg>