<svg xmlns="http://www.w3.org/2000/svg" viewBox="0 0 37.18 37.19"><defs><style>.cls-1{fill:#afb6c9;}</style></defs><g id="Capa_2" data-name="Capa 2"><g id="Facebook"><path class="cls-1" d="M30.24,19.2a6.87,6.87,0,0,0-4.69,1.88L22,18a6.66,6.66,0,0,0,1.56-4.24,4,4,0,0,0-.08-.85l5.34-1.57a4.27,4.27,0,1,0-.52-1.88,3.23,3.23,0,0,0,0,.44L23,11.42A6.7,6.7,0,0,0,14.41,7.5a6.8,6.8,0,0,0-2.7,1.88L8.24,6.28A3.9,3.9,0,0,0,8.93,4a4,4,0,1,0-4,4,3.88,3.88,0,0,0,2.24-.67l3.68,3.13a6.55,6.55,0,0,0,.66,7.3L8.35,20.94a4.88,4.88,0,0,0-3.41-1.38,4.94,4.94,0,1,0,4.93,4.92,4.76,4.76,0,0,0-.58-2.27l3.36-3.3a6.58,6.58,0,0,0,4.17,1.56,6.78,6.78,0,0,0,4.08-1.4l3.63,3.13a6.9,6.9,0,0,0-1.19,3.88A7.08,7.08,0,0,0,24,29l-3.91,1.81a4,4,0,1,0,.76,2.35,4.93,4.93,0,0,0-.11-.94l4.1-1.88A6.85,6.85,0,0,0,30.25,33a6.94,6.94,0,0,0,0-13.87S30.24,19.2,30.24,19.2ZM32.62,6.58a2.76,2.76,0,1,1-2.75,2.75A2.75,2.75,0,0,1,32.62,6.58ZM4.92,6.49A2.46,2.46,0,1,1,7.38,4h0A2.45,2.45,0,0,1,4.93,6.49ZM16.83,35.68a2.46,2.46,0,1,1,2.44-2.48v0A2.44,2.44,0,0,1,16.83,35.68ZM4.92,27.93a3.37,3.37,0,1,1,3.36-3.37A3.37,3.37,0,0,1,4.92,27.93Zm6.7-14.2a5.18,5.18,0,1,1,5.18,5.18A5.17,5.17,0,0,1,11.62,13.73ZM30.24,31.51a5.37,5.37,0,1,1,5.37-5.36A5.37,5.37,0,0,1,30.24,31.51Z"/></g></g></svg>